# Blender 3.6.1
# www.blender.org
mtllib playingCard.mtl
o PlayingCard.001
v 0.017000 7.878440 -6.350000
v 0.017000 8.890000 -5.627457
v 0.017000 8.075786 -6.336116
v 0.017000 8.265548 -6.295000
v 0.017000 8.440433 -6.228229
v 0.017000 8.593721 -6.138372
v 0.017000 8.719522 -6.028880
v 0.017000 8.813000 -5.903962
v 0.017000 8.870564 -5.768418
v 0.017000 -8.890000 -5.627457
v 0.017000 -7.878440 -6.350000
v 0.017000 -8.870564 -5.768418
v 0.017000 -8.813000 -5.903962
v 0.017000 -8.719522 -6.028880
v 0.017000 -8.593721 -6.138372
v 0.017000 -8.440433 -6.228229
v 0.017000 -8.265548 -6.295000
v 0.017000 -8.075786 -6.336116
v 0.017000 8.890000 5.627457
v 0.017000 7.878440 6.350000
v 0.017000 8.870564 5.768418
v 0.017000 8.813000 5.903962
v 0.017000 8.719522 6.028880
v 0.017000 8.593721 6.138372
v 0.017000 8.440433 6.228229
v 0.017000 8.265548 6.295000
v 0.017000 8.075786 6.336116
v 0.017000 -7.878440 6.350000
v 0.017000 -8.890000 5.627457
v 0.017000 -8.075786 6.336116
v 0.017000 -8.265548 6.295000
v 0.017000 -8.440433 6.228229
v 0.017000 -8.593721 6.138372
v 0.017000 -8.719522 6.028880
v 0.017000 -8.813000 5.903962
v 0.017000 -8.870564 5.768418
v -0.017000 8.890000 -5.627457
v -0.017000 7.878440 -6.350000
v -0.017000 8.870564 -5.768418
v -0.017000 8.813000 -5.903962
v -0.017000 8.719522 -6.028880
v -0.017000 8.593721 -6.138372
v -0.017000 8.440433 -6.228229
v -0.017000 8.265548 -6.295000
v -0.017000 8.075786 -6.336116
v -0.017000 -7.878440 -6.350000
v -0.017000 -8.890000 -5.627457
v -0.017000 -8.075786 -6.336116
v -0.017000 -8.265548 -6.295000
v -0.017000 -8.440433 -6.228229
v -0.017000 -8.593721 -6.138372
v -0.017000 -8.719522 -6.028880
v -0.017000 -8.813000 -5.903962
v -0.017000 -8.870564 -5.768418
v -0.017000 7.878440 6.350000
v -0.017000 8.890000 5.627457
v -0.017000 8.075786 6.336116
v -0.017000 8.265548 6.295000
v -0.017000 8.440433 6.228229
v -0.017000 8.593721 6.138372
v -0.017000 8.719522 6.028880
v -0.017000 8.813000 5.903962
v -0.017000 8.870564 5.768418
v -0.017000 -8.890000 5.627457
v -0.017000 -7.878440 6.350000
v -0.017000 -8.870564 5.768418
v -0.017000 -8.813000 5.903962
v -0.017000 -8.719522 6.028880
v -0.017000 -8.593721 6.138372
v -0.017000 -8.440433 6.228229
v -0.017000 -8.265548 6.295000
v -0.017000 -8.075786 6.336116
vn -0.0000 -1.0000 -0.0000
vn -1.0000 -0.0000 -0.0000
vn -0.0000 -0.0000 1.0000
vn -0.0000 1.0000 -0.0000
vn 1.0000 -0.0000 -0.0000
vn -0.0000 -0.9906 -0.1366
vn -0.0000 -0.9204 -0.3909
vn -0.0000 -0.8006 -0.5991
vn -0.0000 -0.6565 -0.7543
vn -0.0000 -0.5057 -0.8627
vn -0.0000 -0.3567 -0.9342
vn -0.0000 -0.2118 -0.9773
vn -0.0000 -0.0702 -0.9975
vn -0.0000 0.9906 0.1366
vn -0.0000 0.9204 0.3909
vn -0.0000 0.8006 0.5991
vn -0.0000 0.6565 0.7543
vn -0.0000 0.5057 0.8627
vn -0.0000 0.3567 0.9342
vn -0.0000 0.2118 0.9773
vn -0.0000 0.0702 0.9975
vn -0.0000 -0.9906 0.1366
vn -0.0000 -0.9204 0.3909
vn -0.0000 -0.8006 0.5991
vn -0.0000 -0.6565 0.7543
vn -0.0000 -0.5057 0.8627
vn -0.0000 -0.3567 0.9342
vn -0.0000 -0.2118 0.9773
vn -0.0000 -0.0702 0.9975
vn -0.0000 0.9906 -0.1366
vn -0.0000 0.9204 -0.3909
vn -0.0000 0.8006 -0.5991
vn -0.0000 0.6565 -0.7543
vn -0.0000 0.5057 -0.8627
vn -0.0000 0.3567 -0.9342
vn -0.0000 0.2118 -0.9773
vn -0.0000 0.0702 -0.9975
vn -0.0000 -0.0000 -1.0000
vt 0.738775 0.407886
vt 0.738775 0.218377
vt 0.975143 0.218377
vt 0.975143 0.407886
vt 0.974643 0.600508
vt 0.977603 0.600715
vt 0.980450 0.601329
vt 0.983074 0.602325
vt 0.985373 0.603666
vt 0.987260 0.605300
vt 0.988662 0.607164
vt 0.989526 0.609186
vt 0.989817 0.611290
vt 0.989817 0.779235
vt 0.989526 0.781339
vt 0.988662 0.783361
vt 0.987260 0.785225
vt 0.985373 0.786859
vt 0.983074 0.788200
vt 0.980450 0.789196
vt 0.977603 0.789810
vt 0.974643 0.790017
vt 0.738275 0.790017
vt 0.735315 0.789810
vt 0.732468 0.789196
vt 0.729845 0.788200
vt 0.727545 0.786859
vt 0.725658 0.785225
vt 0.724256 0.783361
vt 0.723392 0.781339
vt 0.723101 0.779235
vt 0.723101 0.611290
vt 0.723392 0.609186
vt 0.724256 0.607164
vt 0.725658 0.605300
vt 0.727545 0.603666
vt 0.729845 0.602325
vt 0.732468 0.601329
vt 0.735315 0.600715
vt 0.738275 0.600508
vt 0.738775 0.025395
vt 0.975143 0.025395
vt 0.975143 0.214904
vt 0.738775 0.214904
vt 0.723101 0.421781
vt 0.989817 0.421781
vt 0.989818 0.589726
vt 0.723101 0.589726
vt 0.701309 0.936187
vt 0.700554 0.946987
vt 0.698315 0.957372
vt 0.694680 0.966943
vt 0.689789 0.975332
vt 0.683828 0.982217
vt 0.677028 0.987333
vt 0.669649 0.990483
vt 0.661975 0.991546
vt 0.049272 0.991546
vt 0.041599 0.990483
vt 0.034220 0.987333
vt 0.027419 0.982217
vt 0.021459 0.975332
vt 0.016567 0.966943
vt 0.012932 0.957372
vt 0.010694 0.946987
vt 0.009938 0.936187
vt 0.009938 0.073865
vt 0.010694 0.063065
vt 0.012932 0.052680
vt 0.016567 0.043109
vt 0.021459 0.034720
vt 0.027419 0.027835
vt 0.034220 0.022719
vt 0.041599 0.019569
vt 0.049272 0.018505
vt 0.661975 0.018505
vt 0.669649 0.019569
vt 0.677028 0.022719
vt 0.683828 0.027835
vt 0.689789 0.034720
vt 0.694680 0.043109
vt 0.698315 0.052680
vt 0.700554 0.063065
vt 0.701309 0.073865
vt 0.735815 0.407886
vt 0.735815 0.218377
vt 0.732968 0.407886
vt 0.732968 0.218377
vt 0.730345 0.407886
vt 0.730345 0.218377
vt 0.723601 0.407886
vt 0.723601 0.218377
vt 0.989817 0.790017
vt 0.989817 0.979526
vt 0.983074 0.979526
vt 0.983074 0.790017
vt 0.980450 0.979526
vt 0.980450 0.790017
vt 0.977603 0.979526
vt 0.977603 0.790017
vt 0.974643 0.979526
vt 0.989818 0.591830
vt 0.723101 0.591830
vt 0.989818 0.593852
vt 0.723101 0.593852
vt 0.989818 0.595716
vt 0.723101 0.595716
vt 0.989818 0.600508
vt 0.723101 0.600508
vt 0.990317 0.025395
vt 0.990317 0.214904
vt 0.983573 0.214904
vt 0.983573 0.025395
vt 0.980950 0.214904
vt 0.980950 0.025395
vt 0.978103 0.214904
vt 0.978103 0.025395
vt 0.978103 0.218377
vt 0.978103 0.407886
vt 0.980950 0.218377
vt 0.980950 0.407886
vt 0.983573 0.218377
vt 0.983573 0.407886
vt 0.990317 0.218377
vt 0.990317 0.407886
vt 0.723601 0.214904
vt 0.723601 0.025395
vt 0.730345 0.025395
vt 0.730345 0.214904
vt 0.732968 0.025395
vt 0.732968 0.214904
vt 0.735815 0.025395
vt 0.735815 0.214904
vt 0.723101 0.419677
vt 0.989817 0.419677
vt 0.723101 0.417655
vt 0.989817 0.417655
vt 0.723101 0.415791
vt 0.989818 0.415791
vt 0.723101 0.410999
vt 0.989817 0.410999
vt 0.723101 0.979526
vt 0.723101 0.790017
vt 0.729845 0.790017
vt 0.729845 0.979526
vt 0.732468 0.790017
vt 0.732468 0.979526
vt 0.735315 0.790017
vt 0.735315 0.979526
vt 0.738275 0.979526
s 0
usemtl Material.001
f 47/1/1 10/2/1 29/3/1 64/4/1
f 64/5/2 66/6/2 67/7/2 68/8/2 69/9/2 70/10/2 71/11/2 72/12/2 65/13/2 55/14/2 57/15/2 58/16/2 59/17/2 60/18/2 61/19/2 62/20/2 63/21/2 56/22/2 37/23/2 39/24/2 40/25/2 41/26/2 42/27/2 43/28/2 44/29/2 45/30/2 38/31/2 46/32/2 48/33/2 49/34/2 50/35/2 51/36/2 52/37/2 53/38/2 54/39/2 47/40/2
f 28/41/3 20/42/3 55/43/3 65/44/3
f 2/45/4 37/46/4 56/47/4 19/48/4
f 10/49/5 12/50/5 13/51/5 14/52/5 15/53/5 16/54/5 17/55/5 18/56/5 11/57/5 1/58/5 3/59/5 4/60/5 5/61/5 6/62/5 7/63/5 8/64/5 9/65/5 2/66/5 19/67/5 21/68/5 22/69/5 23/70/5 24/71/5 25/72/5 26/73/5 27/74/5 20/75/5 28/76/5 30/77/5 31/78/5 32/79/5 33/80/5 34/81/5 35/82/5 36/83/5 29/84/5
f 10/2/6 47/1/6 54/85/6 12/86/6
f 12/86/7 54/85/7 53/87/7 13/88/7
f 13/88/8 53/87/8 52/89/8 14/90/8
f 14/90/9 52/89/9 51/91/9 15/92/9
f 15/93/10 51/94/10 50/95/10 16/96/10
f 16/96/11 50/95/11 49/97/11 17/98/11
f 17/98/12 49/97/12 48/99/12 18/100/12
f 18/100/13 48/99/13 46/101/13 11/22/13
f 19/48/14 56/47/14 63/102/14 21/103/14
f 21/103/15 63/102/15 62/104/15 22/105/15
f 22/105/16 62/104/16 61/106/16 23/107/16
f 23/107/17 61/106/17 60/108/17 24/109/17
f 24/110/18 60/111/18 59/112/18 25/113/18
f 25/113/19 59/112/19 58/114/19 26/115/19
f 26/115/20 58/114/20 57/116/20 27/117/20
f 27/117/21 57/116/21 55/43/21 20/42/21
f 64/4/22 29/3/22 36/118/22 66/119/22
f 66/119/23 36/118/23 35/120/23 67/121/23
f 67/121/24 35/120/24 34/122/24 68/123/24
f 68/123/25 34/122/25 33/124/25 69/125/25
f 69/126/26 33/127/26 32/128/26 70/129/26
f 70/129/27 32/128/27 31/130/27 71/131/27
f 71/131/28 31/130/28 30/132/28 72/133/28
f 72/133/29 30/132/29 28/41/29 65/44/29
f 37/46/30 2/45/30 9/134/30 39/135/30
f 39/135/31 9/134/31 8/136/31 40/137/31
f 40/137/32 8/136/32 7/138/32 41/139/32
f 41/139/33 7/138/33 6/140/33 42/141/33
f 42/142/34 6/143/34 5/144/34 43/145/34
f 43/145/35 5/144/35 4/146/35 44/147/35
f 44/147/36 4/146/36 3/148/36 45/149/36
f 45/149/37 3/148/37 1/23/37 38/150/37
f 46/101/38 38/150/38 1/23/38 11/22/38
