# This file uses centimeters as units for non-parametric coordinates.

mtllib playingCard.mtl
g default
v -2.869108 4.425505 0.010000
v -2.968646 4.384275 0.010000
v -3.054120 4.318688 0.010000
v -3.119707 4.233213 0.010000
v -3.160937 4.133676 0.010000
v -3.175000 4.026859 0.010000
v -2.762291 4.439567 0.010000
v -3.175000 4.026859 -0.010000
v -3.160937 4.133676 -0.010000
v -3.119707 4.233213 -0.010000
v -3.054120 4.318688 -0.010000
v -2.968646 4.384275 -0.010000
v -2.869108 4.425505 -0.010000
v -2.762291 4.439567 -0.010000
v 3.160937 4.133676 0.010000
v 3.119707 4.233213 0.010000
v 3.054120 4.318688 0.010000
v 2.968646 4.384275 0.010000
v 2.869108 4.425505 0.010000
v 2.762291 4.439567 0.010000
v 3.175000 4.026859 0.010000
v 3.175000 4.026859 -0.010000
v 2.762291 4.439567 -0.010000
v 2.869108 4.425505 -0.010000
v 2.968646 4.384275 -0.010000
v 3.054120 4.318688 -0.010000
v 3.119707 4.233213 -0.010000
v 3.160937 4.133676 -0.010000
v -3.160937 -4.144542 0.010000
v -3.119707 -4.244079 0.010000
v -3.054120 -4.329554 0.010000
v -2.968646 -4.395141 0.010000
v -2.869108 -4.436371 0.010000
v -2.762291 -4.450434 0.010000
v -3.175000 -4.037725 0.010000
v -2.869108 -4.436371 -0.010000
v -2.968646 -4.395141 -0.010000
v -3.054120 -4.329554 -0.010000
v -3.119707 -4.244079 -0.010000
v -3.160937 -4.144542 -0.010000
v -3.175000 -4.037725 -0.010000
v -2.762291 -4.450434 -0.010000
v 2.869108 -4.436371 0.010000
v 2.968646 -4.395141 0.010000
v 3.054120 -4.329554 0.010000
v 3.119707 -4.244079 0.010000
v 3.160937 -4.144542 0.010000
v 3.175000 -4.037725 0.010000
v 2.762291 -4.450434 0.010000
v 3.160937 -4.144542 -0.010000
v 3.119707 -4.244079 -0.010000
v 3.054120 -4.329554 -0.010000
v 2.968646 -4.395141 -0.010000
v 2.869108 -4.436371 -0.010000
v 2.762291 -4.450434 -0.010000
v 3.175000 -4.037725 -0.010000
vt 0.686759 0.026963
vt 0.822282 0.379312
vt 0.045863 0.003907
vt 0.663799 0.517181
vt 0.607496 0.996093
vt 0.663784 0.826669
vt 0.688446 0.023100
vt 0.822267 0.688800
vt 0.003907 0.950033
vt 0.663791 0.674868
vt 0.691130 0.019783
vt 0.822275 0.531113
vt 0.694628 0.017238
vt 0.822260 0.840601
vt 0.649452 0.049967
vt 0.663776 0.984356
vt 0.648022 0.038046
vt 0.663776 0.986293
vt 0.643831 0.026937
vt 0.663776 0.988344
vt 0.637163 0.017397
vt 0.663806 0.371603
vt 0.628473 0.010077
vt 0.663806 0.374036
vt 0.618354 0.005476
vt 0.663806 0.376626
vt 0.035003 0.005477
vt 0.663799 0.519858
vt 0.024884 0.010078
vt 0.663798 0.522449
vt 0.016195 0.017398
vt 0.663798 0.524882
vt 0.009527 0.026938
vt 0.663798 0.527118
vt 0.005336 0.038047
vt 0.663798 0.529169
vt 0.618355 0.994523
vt 0.663784 0.829347
vt 0.628474 0.989921
vt 0.663783 0.831937
vt 0.637164 0.982602
vt 0.663783 0.834370
vt 0.643831 0.973062
vt 0.663783 0.836606
vt 0.648023 0.961953
vt 0.663783 0.838657
vt 0.005337 0.961954
vt 0.663791 0.676804
vt 0.009528 0.973063
vt 0.663791 0.678855
vt 0.016196 0.982603
vt 0.663791 0.681091
vt 0.024885 0.989923
vt 0.663791 0.683524
vt 0.035004 0.994524
vt 0.663791 0.686115
vt 0.663790 0.688792
vt 0.698701 0.015638
vt 0.822267 0.686122
vt 0.045863 0.996094
vt 0.703072 0.015092
vt 0.822268 0.683532
vt 0.929148 0.015094
vt 0.822268 0.681099
vt 0.933519 0.015640
vt 0.822268 0.678863
vt 0.937592 0.017240
vt 0.822268 0.676812
vt 0.941090 0.019785
vt 0.822268 0.674876
vt 0.663783 0.840594
vt 0.943774 0.023102
vt 0.822260 0.838665
vt 0.649452 0.950031
vt 0.945461 0.026965
vt 0.822260 0.836614
vt 0.946037 0.031110
vt 0.822260 0.834378
vt 0.946036 0.344071
vt 0.822260 0.831945
vt 0.945460 0.348217
vt 0.822260 0.829355
vt 0.943773 0.352079
vt 0.822260 0.826677
vt 0.663798 0.531105
vt 0.941089 0.355396
vt 0.822275 0.529177
vt 0.003906 0.049968
vt 0.937591 0.357942
vt 0.822275 0.527126
vt 0.933518 0.359541
vt 0.822275 0.524889
vt 0.929147 0.360087
vt 0.822275 0.522457
vt 0.703071 0.360086
vt 0.822275 0.519866
vt 0.698700 0.359540
vt 0.822276 0.517189
vt 0.663805 0.379304
vt 0.694626 0.357940
vt 0.822282 0.376634
vt 0.607495 0.003906
vt 0.691129 0.355395
vt 0.822282 0.374043
vt 0.688445 0.352078
vt 0.822253 0.990588
vt 0.686758 0.348215
vt 0.822253 0.988351
vt 0.686182 0.344070
vt 0.822253 0.986300
vt 0.686183 0.031108
vt 0.822253 0.984364
vt 0.822283 0.371611
vt 0.663776 0.990580
vn -0.002497 0.999997 0.000000
vn -0.002497 0.999997 0.000000
vn 0.002497 0.999997 0.000000
vn 0.002497 0.999997 0.000000
vn -0.002497 -0.999997 0.000000
vn -0.002497 -0.999997 0.000000
vn 0.002497 -0.999997 0.000000
vn 0.002497 -0.999997 0.000000
vn 0.999999 -0.001721 0.000000
vn 0.999999 -0.001721 0.000000
vn 0.999999 0.001721 0.000000
vn 0.999999 0.001721 0.000000
vn -0.999999 -0.001721 0.000000
vn -0.999999 -0.001721 0.000000
vn -0.999999 0.001721 0.000000
vn -0.999999 0.001721 0.000000
vn -0.965926 0.258820 0.000000
vn -0.965926 0.258820 0.000000
vn -0.866026 0.499999 0.000000
vn -0.866026 0.499999 0.000000
vn -0.707107 0.707106 -0.000006
vn -0.707107 0.707106 -0.000006
vn -0.499998 0.866026 -0.000012
vn -0.499998 0.866026 -0.000012
vn -0.258818 0.965926 -0.000006
vn -0.258818 0.965926 -0.000006
vn 0.258818 0.965926 -0.000006
vn 0.258818 0.965926 -0.000006
vn 0.499998 0.866026 -0.000012
vn 0.499998 0.866026 -0.000012
vn 0.707107 0.707106 -0.000006
vn 0.707107 0.707106 -0.000006
vn 0.866026 0.499999 0.000000
vn 0.866026 0.499999 0.000000
vn 0.965926 0.258820 0.000000
vn 0.965926 0.258820 0.000000
vn -0.258819 -0.965926 0.000000
vn -0.258819 -0.965926 0.000000
vn -0.500000 -0.866025 0.000000
vn -0.500000 -0.866025 0.000000
vn -0.707107 -0.707107 0.000000
vn -0.707107 -0.707107 0.000000
vn -0.866025 -0.500000 0.000000
vn -0.866025 -0.500000 0.000000
vn -0.965926 -0.258820 0.000000
vn -0.965926 -0.258820 0.000000
vn 0.965926 -0.258820 0.000000
vn 0.965926 -0.258820 0.000000
vn 0.866025 -0.500000 0.000000
vn 0.866025 -0.500000 0.000000
vn 0.707107 -0.707107 0.000000
vn 0.707107 -0.707107 0.000000
vn 0.500000 -0.866025 0.000000
vn 0.500000 -0.866025 0.000000
vn 0.258819 -0.965926 0.000000
vn 0.258819 -0.965926 0.000000
vn -0.000000 0.000000 1.000000
vn -0.000000 0.000000 1.000000
vn -0.000000 0.000000 1.000000
vn -0.000000 0.000000 1.000000
vn -0.000000 0.000000 1.000000
vn -0.000000 0.000000 1.000000
vn -0.000000 0.000000 1.000000
vn -0.000000 0.000000 1.000000
vn -0.000000 0.000000 1.000000
vn -0.000000 0.000000 1.000000
vn -0.000000 0.000000 1.000000
vn -0.000000 0.000000 1.000000
vn -0.000000 0.000000 1.000000
vn -0.000000 0.000000 1.000000
vn -0.000000 0.000000 1.000000
vn -0.000000 0.000000 1.000000
vn -0.000000 0.000000 1.000000
vn -0.000000 0.000000 1.000000
vn -0.000000 0.000000 1.000000
vn -0.000000 0.000000 1.000000
vn -0.000000 0.000000 1.000000
vn -0.000000 0.000000 1.000000
vn -0.000000 0.000000 1.000000
vn -0.000000 0.000000 1.000000
vn -0.000000 0.000000 1.000000
vn -0.000000 0.000000 1.000000
vn -0.000000 0.000000 1.000000
vn -0.000000 0.000000 1.000000
vn 0.000000 0.000000 -1.000000
vn 0.000000 0.000000 -1.000000
vn 0.000000 0.000000 -1.000000
vn 0.000000 0.000000 -1.000000
vn 0.000000 0.000000 -1.000000
vn 0.000000 0.000000 -1.000000
vn 0.000000 0.000000 -1.000000
vn 0.000000 0.000000 -1.000000
vn 0.000000 0.000000 -1.000000
vn 0.000000 0.000000 -1.000000
vn 0.000000 0.000000 -1.000000
vn 0.000000 0.000000 -1.000000
vn 0.000000 0.000000 -1.000000
vn 0.000000 0.000000 -1.000000
vn 0.000000 0.000000 -1.000000
vn 0.000000 0.000000 -1.000000
vn 0.000000 0.000000 -1.000000
vn 0.000000 0.000000 -1.000000
vn 0.000000 0.000000 -1.000000
vn 0.000000 0.000000 -1.000000
vn 0.000000 0.000000 -1.000000
vn 0.000000 0.000000 -1.000000
vn 0.000000 0.000000 -1.000000
vn 0.000000 0.000000 -1.000000
vn 0.000000 0.000000 -1.000000
vn 0.000000 0.000000 -1.000000
vn 0.000000 0.000000 -1.000000
vn 0.000000 0.000000 -1.000000
s 1
g pCube1
usemtl initialShadingGroup
f 14/99/1 7/2/2 20/98/3 23/4/4
f 34/84/5 42/6/6 55/57/7 49/8/8
f 48/70/9 56/10/10 22/85/11 21/12/12
f 41/71/13 35/14/14 6/112/15 8/16/16
f 6/112/15 5/110/17 9/18/18 8/16/16
f 5/110/17 4/108/19 10/20/20 9/18/18
f 4/108/19 3/106/21 11/114/22 10/20/20
f 3/113/21 2/104/23 12/24/24 11/22/22
f 2/104/23 1/101/25 13/26/26 12/24/24
f 1/101/25 7/2/2 14/99/1 13/26/26
f 20/98/3 19/96/27 24/28/28 23/4/4
f 19/96/27 18/94/29 25/30/30 24/28/28
f 18/94/29 17/92/31 26/32/32 25/30/30
f 17/92/31 16/90/33 27/34/34 26/32/32
f 16/90/33 15/87/35 28/36/36 27/34/34
f 15/87/35 21/12/12 22/85/11 28/36/36
f 34/84/5 33/82/37 36/38/38 42/6/6
f 33/82/37 32/80/39 37/40/40 36/38/38
f 32/80/39 31/78/41 38/42/42 37/40/40
f 31/78/41 30/76/43 39/44/44 38/42/42
f 30/76/43 29/73/45 40/46/46 39/44/44
f 29/73/45 35/14/14 41/71/13 40/46/46
f 48/70/9 47/68/47 50/48/48 56/10/10
f 47/68/47 46/66/49 51/50/50 50/48/48
f 46/66/49 45/64/51 52/52/52 51/50/50
f 45/64/51 44/62/53 53/54/54 52/52/52
f 44/62/53 43/59/55 54/56/56 53/54/54
f 43/59/55 49/8/8 55/57/7 54/56/56
s off
f 43/55/57 44/53/58 45/51/59 46/49/60 47/47/61 48/9/62 21/88/63 15/35/64 16/33/65 17/31/66 18/29/67 19/27/68 20/3/69 7/102/70 1/25/71 2/23/72 3/21/73 4/19/74 5/17/75 6/15/76 35/74/77 29/45/78 30/43/79 31/41/80 32/39/81 33/37/82 34/5/83 49/60/84
f 50/1/85 51/7/86 52/11/87 53/13/88 54/58/89 55/61/90 42/63/91 36/65/92 37/67/93 38/69/94 39/72/95 40/75/96 41/77/97 8/79/98 9/81/99 10/83/100 11/86/101 12/89/102 13/91/103 14/93/104 23/95/105 24/97/106 25/100/107 26/103/108 27/105/109 28/107/110 22/109/111 56/111/112
